<?xml version="1.0" encoding="UTF-8" standalone="no"?>
<!DOCTYPE svg PUBLIC "-//W3C//DTD SVG 1.1//EN"
 "http://www.w3.org/Graphics/SVG/1.1/DTD/svg11.dtd">
<!-- Generated by graphviz version 2.38.0 (20140413.2041)
 -->
<!-- Title: %3 Pages: 1 -->
<svg width="533pt" height="99pt"
 viewBox="0.00 0.00 533.00 99.00" xmlns="http://www.w3.org/2000/svg" xmlns:xlink="http://www.w3.org/1999/xlink">
<g id="graph0" class="graph" transform="scale(1 1) rotate(0) translate(4 95)">
<title>%3</title>
<polygon fill="white" stroke="none" points="-4,4 -4,-95 529,-95 529,4 -4,4"/>
<text text-anchor="middle" x="262.5" y="-7.8" font-family="Times,serif" font-size="14.00">Programowanie strukturalne</text>
<!-- start -->
<g id="node1" class="node"><title>start</title>
<path fill="none" stroke="black" d="M42,-61C42,-61 12,-61 12,-61 6,-61 0,-55 0,-49 0,-49 0,-37 0,-37 0,-31 6,-25 12,-25 12,-25 42,-25 42,-25 48,-25 54,-31 54,-37 54,-37 54,-49 54,-49 54,-55 48,-61 42,-61"/>
<text text-anchor="middle" x="27" y="-39.3" font-family="Times,serif" font-size="14.00">start</text>
</g>
<!-- i1 -->
<g id="node4" class="node"><title>i1</title>
<polygon fill="none" stroke="black" points="145,-61 91,-61 91,-25 145,-25 145,-61"/>
<text text-anchor="middle" x="118" y="-39.3" font-family="Times,serif" font-size="14.00">i1</text>
</g>
<!-- start&#45;&gt;i1 -->
<g id="edge1" class="edge"><title>start&#45;&gt;i1</title>
<path fill="none" stroke="black" d="M54.2216,-43C62.5505,-43 71.9135,-43 80.8161,-43"/>
<polygon fill="black" stroke="black" points="80.9659,-46.5001 90.9659,-43 80.9658,-39.5001 80.9659,-46.5001"/>
</g>
<!-- end -->
<g id="node2" class="node"><title>end</title>
<path fill="none" stroke="black" d="M513,-59C513,-59 483,-59 483,-59 477,-59 471,-53 471,-47 471,-47 471,-35 471,-35 471,-29 477,-23 483,-23 483,-23 513,-23 513,-23 519,-23 525,-29 525,-35 525,-35 525,-47 525,-47 525,-53 519,-59 513,-59"/>
<text text-anchor="middle" x="498" y="-37.3" font-family="Times,serif" font-size="14.00">end</text>
</g>
<!-- if -->
<g id="node3" class="node"><title>if</title>
<polygon fill="none" stroke="black" points="209,-61 182,-43 209,-25 236,-43 209,-61"/>
<text text-anchor="middle" x="209" y="-39.3" font-family="Times,serif" font-size="14.00">if</text>
</g>
<!-- i2 -->
<g id="node5" class="node"><title>i2</title>
<polygon fill="none" stroke="black" points="343,-91 289,-91 289,-55 343,-55 343,-91"/>
<text text-anchor="middle" x="316" y="-69.3" font-family="Times,serif" font-size="14.00">i2</text>
</g>
<!-- if&#45;&gt;i2 -->
<g id="edge3" class="edge"><title>if&#45;&gt;i2</title>
<path fill="none" stroke="black" d="M228.29,-48.2256C242.239,-52.2111 261.895,-57.8271 278.966,-62.7047"/>
<polygon fill="black" stroke="black" points="278.08,-66.0913 288.657,-65.4733 280.003,-59.3607 278.08,-66.0913"/>
<text text-anchor="middle" x="262.5" y="-62.8" font-family="Times,serif" font-size="14.00">nie</text>
</g>
<!-- i3 -->
<g id="node6" class="node"><title>i3</title>
<polygon fill="none" stroke="black" points="434,-59 380,-59 380,-23 434,-23 434,-59"/>
<text text-anchor="middle" x="407" y="-37.3" font-family="Times,serif" font-size="14.00">i3</text>
</g>
<!-- if&#45;&gt;i3 -->
<g id="edge4" class="edge"><title>if&#45;&gt;i3</title>
<path fill="none" stroke="black" d="M230.364,-39.0426C246.261,-36.1633 268.942,-32.5147 289,-31 312.932,-29.1928 319.074,-29.1129 343,-31 351.729,-31.6884 361.075,-32.9055 369.824,-34.2589"/>
<polygon fill="black" stroke="black" points="369.314,-37.7219 379.749,-35.8869 370.448,-30.8142 369.314,-37.7219"/>
<text text-anchor="middle" x="316" y="-34.8" font-family="Times,serif" font-size="14.00">tak</text>
</g>
<!-- i1&#45;&gt;if -->
<g id="edge2" class="edge"><title>i1&#45;&gt;if</title>
<path fill="none" stroke="black" d="M145.222,-43C153.551,-43 162.914,-43 171.816,-43"/>
<polygon fill="black" stroke="black" points="171.966,-46.5001 181.966,-43 171.966,-39.5001 171.966,-46.5001"/>
</g>
<!-- i2&#45;&gt;i3 -->
<g id="edge6" class="edge"><title>i2&#45;&gt;i3</title>
<path fill="none" stroke="black" d="M343.222,-63.572C351.732,-60.5122 361.321,-57.0643 370.396,-53.8014"/>
<polygon fill="black" stroke="black" points="371.74,-57.0377 379.966,-50.3606 369.371,-50.4505 371.74,-57.0377"/>
</g>
<!-- i3&#45;&gt;end -->
<g id="edge5" class="edge"><title>i3&#45;&gt;end</title>
<path fill="none" stroke="black" d="M434.222,-41C442.551,-41 451.914,-41 460.816,-41"/>
<polygon fill="black" stroke="black" points="460.966,-44.5001 470.966,-41 460.966,-37.5001 460.966,-44.5001"/>
</g>
</g>
</svg>
