<?xml version="1.0" encoding="UTF-8" standalone="no"?>
<!DOCTYPE svg PUBLIC "-//W3C//DTD SVG 1.1//EN"
 "http://www.w3.org/Graphics/SVG/1.1/DTD/svg11.dtd">
<!-- Generated by graphviz version 2.38.0 (20140413.2041)
 -->
<!-- Title: interpreter Pages: 1 -->
<svg width="550pt" height="44pt"
 viewBox="0.00 0.00 550.00 44.00" xmlns="http://www.w3.org/2000/svg" xmlns:xlink="http://www.w3.org/1999/xlink">
<g id="graph0" class="graph" transform="scale(1 1) rotate(0) translate(4 40)">
<title>interpreter</title>
<polygon fill="white" stroke="none" points="-4,4 -4,-40 546,-40 546,4 -4,4"/>
<!-- kod źródłowy -->
<g id="node1" class="node"><title>kod źródłowy</title>
<polygon fill="none" stroke="black" points="92,-36 0,-36 0,-0 92,-0 92,-36"/>
<text text-anchor="middle" x="46" y="-14.3" font-family="Times,serif" font-size="14.00">kod źródłowy</text>
</g>
<!-- kompilator -->
<g id="node2" class="node"><title>kompilator</title>
<polygon fill="none" stroke="black" points="205,-36 128,-36 128,-0 205,-0 205,-36"/>
<text text-anchor="middle" x="166.5" y="-14.3" font-family="Times,serif" font-size="14.00">kompilator</text>
</g>
<!-- kod źródłowy&#45;&gt;kompilator -->
<g id="edge1" class="edge"><title>kod źródłowy&#45;&gt;kompilator</title>
<path fill="none" stroke="black" d="M92.1378,-18C100.508,-18 109.277,-18 117.722,-18"/>
<polygon fill="black" stroke="black" points="117.815,-21.5001 127.815,-18 117.815,-14.5001 117.815,-21.5001"/>
</g>
<!-- kod bajtowy -->
<g id="node3" class="node"><title>kod bajtowy</title>
<polygon fill="none" stroke="black" points="325,-36 241,-36 241,-0 325,-0 325,-36"/>
<text text-anchor="middle" x="283" y="-14.3" font-family="Times,serif" font-size="14.00">kod bajtowy</text>
</g>
<!-- kompilator&#45;&gt;kod bajtowy -->
<g id="edge2" class="edge"><title>kompilator&#45;&gt;kod bajtowy</title>
<path fill="none" stroke="black" d="M205.309,-18C213.367,-18 222.008,-18 230.48,-18"/>
<polygon fill="black" stroke="black" points="230.679,-21.5001 240.679,-18 230.679,-14.5001 230.679,-21.5001"/>
</g>
<!-- interpreter -->
<g id="node4" class="node"><title>interpreter</title>
<polygon fill="none" stroke="black" points="434,-36 361,-36 361,-0 434,-0 434,-36"/>
<text text-anchor="middle" x="397.5" y="-14.3" font-family="Times,serif" font-size="14.00">interpreter</text>
</g>
<!-- kod bajtowy&#45;&gt;interpreter -->
<g id="edge3" class="edge"><title>kod bajtowy&#45;&gt;interpreter</title>
<path fill="none" stroke="black" d="M325.252,-18C333.544,-18 342.306,-18 350.741,-18"/>
<polygon fill="black" stroke="black" points="350.815,-21.5001 360.815,-18 350.815,-14.5001 350.815,-21.5001"/>
</g>
<!-- wynik -->
<g id="node5" class="node"><title>wynik</title>
<polygon fill="none" stroke="black" points="542,-36 470,-36 470,-0 542,-0 542,-36"/>
<text text-anchor="middle" x="506" y="-14.3" font-family="Times,serif" font-size="14.00">wynik</text>
</g>
<!-- interpreter&#45;&gt;wynik -->
<g id="edge4" class="edge"><title>interpreter&#45;&gt;wynik</title>
<path fill="none" stroke="black" d="M434.259,-18C442.422,-18 451.201,-18 459.704,-18"/>
<polygon fill="black" stroke="black" points="459.878,-21.5001 469.878,-18 459.878,-14.5001 459.878,-21.5001"/>
</g>
</g>
</svg>
