<?xml version="1.0" encoding="UTF-8" standalone="no"?>
<!DOCTYPE svg PUBLIC "-//W3C//DTD SVG 1.1//EN"
 "http://www.w3.org/Graphics/SVG/1.1/DTD/svg11.dtd">
<!-- Generated by graphviz version 2.38.0 (20140413.2041)
 -->
<!-- Title: kompilator Pages: 1 -->
<svg width="692pt" height="44pt"
 viewBox="0.00 0.00 692.00 44.00" xmlns="http://www.w3.org/2000/svg" xmlns:xlink="http://www.w3.org/1999/xlink">
<g id="graph0" class="graph" transform="scale(1 1) rotate(0) translate(4 40)">
<title>kompilator</title>
<polygon fill="white" stroke="none" points="-4,4 -4,-40 688,-40 688,4 -4,4"/>
<!-- kod źródłowy -->
<g id="node1" class="node"><title>kod źródłowy</title>
<polygon fill="none" stroke="black" points="144,-36 0,-36 0,-0 144,-0 144,-36"/>
<text text-anchor="middle" x="72" y="-14.3" font-family="Times,serif" font-size="14.00">kod źródłowy</text>
</g>
<!-- kompilator -->
<g id="node2" class="node"><title>kompilator</title>
<polygon fill="none" stroke="black" points="324,-36 180,-36 180,-0 324,-0 324,-36"/>
<text text-anchor="middle" x="252" y="-14.3" font-family="Times,serif" font-size="14.00">kompilator</text>
</g>
<!-- kod źródłowy&#45;&gt;kompilator -->
<g id="edge1" class="edge"><title>kod źródłowy&#45;&gt;kompilator</title>
<path fill="none" stroke="black" d="M144.118,-18C152.609,-18 161.327,-18 169.944,-18"/>
<polygon fill="black" stroke="black" points="169.995,-21.5001 179.995,-18 169.995,-14.5001 169.995,-21.5001"/>
</g>
<!-- kod maszynowy -->
<g id="node3" class="node"><title>kod maszynowy</title>
<polygon fill="none" stroke="black" points="504,-36 360,-36 360,-0 504,-0 504,-36"/>
<text text-anchor="middle" x="432" y="-14.3" font-family="Times,serif" font-size="14.00">kod maszynowy</text>
</g>
<!-- kompilator&#45;&gt;kod maszynowy -->
<g id="edge2" class="edge"><title>kompilator&#45;&gt;kod maszynowy</title>
<path fill="none" stroke="black" d="M324.118,-18C332.609,-18 341.327,-18 349.944,-18"/>
<polygon fill="black" stroke="black" points="349.995,-21.5001 359.995,-18 349.995,-14.5001 349.995,-21.5001"/>
</g>
<!-- wynik -->
<g id="node4" class="node"><title>wynik</title>
<polygon fill="none" stroke="black" points="684,-36 540,-36 540,-0 684,-0 684,-36"/>
<text text-anchor="middle" x="612" y="-14.3" font-family="Times,serif" font-size="14.00">wynik</text>
</g>
<!-- kod maszynowy&#45;&gt;wynik -->
<g id="edge3" class="edge"><title>kod maszynowy&#45;&gt;wynik</title>
<path fill="none" stroke="black" d="M504.118,-18C512.609,-18 521.327,-18 529.944,-18"/>
<polygon fill="black" stroke="black" points="529.995,-21.5001 539.995,-18 529.995,-14.5001 529.995,-21.5001"/>
</g>
</g>
</svg>
